<?xml version="1.0"?>
<svg version="1.1" xmlns="http://www.w3.org/2000/svg" width="200" height="40" style=""><path fill="#d11560" d="M15.8349609375,17.38525390625q-0.029296875-0.38818359375,0.06591796875-0.732421875t0.35888671875-0.5712890625t0.8935546875-0.22705078125q0.146484375,0,0.35888671875,0.029296875t0.4248046875,0.09521484375t0.34423828125,0.18310546875t0.1318359375,0.322265625q0,0.5419921875,0.03662109375,1.42822265625t0.09521484375,1.845703125t0.10986328125,1.875t0.09521484375,1.48681640625q1.142578125-0.05859375,2.2998046875-0.05859375t2.28515625-0.05859375l2.021484375-0.05859375l0-1.4501953125q0-2.431640625-0.09521484375-4.87060546875t-0.32958984375-4.87060546875q0-0.17578125,0.146484375-0.28564453125t0.34423828125-0.16845703125t0.41015625-0.0732421875t0.32958984375-0.0146484375q0.3369140625,0,0.72509765625,0.1025390625t0.44677734375,0.439453125l0.087890625,0.6298828125q0.3662109375,2.63671875,0.498046875,5.21484375t0.1904296875,5.15625q0.17578125,0.029296875,0.37353515625,0.09521484375t0.40283203125,0.12451171875q0.146484375,0.05859375,0.41748046875,0.17578125t0.27099609375,0.3662109375q0,0.234375-0.205078125,0.3662109375t-0.46142578125,0.19775390625t-0.498046875,0.08056640625t-0.30029296875,0.0146484375q0.029296875,1.083984375,0.029296875,2.16064453125l0,2.16064453125l0,4.7314453125l0,2.63671875q0,0.17578125-0.16845703125,0.31494140625t-0.40283203125,0.22705078125t-0.49072265625,0.1171875t-0.46142578125,0.029296875t-0.4833984375-0.029296875t-0.498046875-0.1171875t-0.38818359375-0.2197265625t-0.16845703125-0.322265625l0-0.6298828125q0.05859375-2.783203125,0.1318359375-5.51513671875t0.146484375-5.48583984375q-1.5966796875,0.05859375-3.24462890625,0.0732421875t-3.27392578125,0.0732421875q0.17578125,2.0654296875,0.40283203125,4.12353515625t0.47607421875,4.12353515625q0,0.17578125-0.16845703125,0.31494140625t-0.3955078125,0.22705078125t-0.4833984375,0.1171875t-0.46142578125,0.029296875q-0.4248046875,0-0.93017578125-0.146484375t-0.56396484375-0.5419921875q-0.17578125-1.552734375-0.32958984375-3.427734375t-0.27099609375-3.83056640625t-0.18310546875-3.83056640625t-0.06591796875-3.3984375q0-0.3662109375-0.029296875-0.75439453125z M32.573291015625,29.5361328125q0-0.99609375,0.27099609375-1.9189453125t0.81298828125-1.64794921875t1.35498046875-1.1572265625t1.88232421875-0.43212890625q0.6591796875,0,1.45751953125,0.19775390625t1.50146484375,0.5859375t1.171875,0.98876953125t0.46875,1.376953125q0,0.3662109375-0.12451171875,0.556640625t-0.50537109375,0.1904296875l-0.1611328125-0.029296875q0.4248046875,1.142578125,0.732421875,2.34375t0.6005859375,2.40234375q0.1171875,0.234375,0.17578125,0.41748046875t0.05859375,0.35888671875q0,0.234375-0.1318359375,0.38818359375t-0.34423828125,0.22705078125t-0.439453125,0.1025390625t-0.40283203125,0.029296875q-0.6298828125,0-0.94482421875-0.2197265625t-0.4541015625-0.6005859375t-0.16845703125-0.85693359375t-0.1171875-0.95947265625q-0.17578125,0.5712890625-0.46142578125,1.11328125t-0.673828125,0.97412109375t-0.91552734375,0.6884765625t-1.1865234375,0.25634765625q-0.966796875,0-1.6259765625-0.556640625t-1.06201171875-1.36962890625t-0.5859375-1.73583984375t-0.18310546875-1.7138671875z M34.653369140625,29.3310546875q0,0.5419921875,0.0732421875,1.142578125t0.24169921875,1.1865234375t0.43212890625,1.10595703125t0.6591796875,0.91552734375q0.7177734375-0.7763671875,1.06201171875-1.8896484375t0.615234375-2.14599609375t0.615234375-1.7724609375t1.06201171875-0.73974609375q0.4541015625,0,0.76171875,0.1611328125q-0.146484375-0.3662109375-0.4833984375-0.71044921875t-0.75439453125-0.6298828125t-0.8642578125-0.46875t-0.84228515625-0.18310546875q-0.1171875,0-0.27099609375,0.03662109375t-0.24169921875,0.00732421875q-0.6005859375,0.17578125-0.98876953125,0.60791015625t-0.6298828125,1.01806640625t-0.34423828125,1.201171875t-0.1025390625,1.1572265625z M45.26865234375,29.3603515625q0-1.142578125,0.24169921875-2.07275390625t0.76904296875-1.57470703125t1.38427734375-1.00341796875t2.08740234375-0.35888671875q0.6884765625,0,1.40625,0.18310546875t1.23046875,0.68115234375q0-0.29296875,0.05859375-1.20849609375t0.146484375-2.13134765625t0.18310546875-2.548828125t0.16845703125-2.4755859375t0.1318359375-1.9189453125t0.087890625-0.87890625q0.146484375-0.4248046875,0.5419921875-0.50537109375t0.7470703125-0.08056640625q0.9228515625,0,1.13525390625,0.29296875t0.21240234375,1.171875q0,3.2080078125-0.28564453125,6.38671875t-0.28564453125,6.38671875q0,2.0654296875,0.08056640625,4.15283203125t0.57861328125,4.10888671875l0.1611328125,0.146484375l0.087890625,0.263671875l-0.2197265625,0.3369140625q-0.556640625,0.3515625-1.2890625,0.3515625l-0.05859375,0q-0.7470703125,0-1.376953125-0.3515625q-0.234375-0.146484375-0.38818359375-0.87158203125t-0.24169921875-1.5966796875t-0.1318359375-1.67724609375t-0.0732421875-1.142578125q-0.5126953125,1.171875-1.39892578125,2.01416015625t-2.23388671875,0.84228515625q-1.0546875,0-1.728515625-0.4541015625t-1.04736328125-1.1572265625t-0.52734375-1.57470703125t-0.15380859375-1.73583984375z M47.04111328125,29.4482421875q0,0.3369140625,0.08056640625,0.99609375t0.25634765625,1.318359375t0.49072265625,1.171875t0.82763671875,0.5126953125q0.6884765625-0.3369140625,1.2451171875-1.12060546875t0.95947265625-1.728515625t0.6298828125-1.8896484375t0.22705078125-1.63330078125q0-0.8642578125-0.6298828125-1.435546875t-1.5087890625-0.5712890625q-0.263671875,0-0.53466796875,0.1025390625t-0.50537109375,0.234375q-0.5419921875,0.5126953125-0.84228515625,0.93017578125t-0.4541015625,0.8642578125t-0.19775390625,0.98876953125t-0.0439453125,1.259765625z M59.135888671875,30.13671875q0-1.025390625,0.22705078125-2.4169921875t0.76904296875-2.63671875t1.42822265625-2.11669921875t2.23388671875-0.87158203125q1.259765625,0,1.8896484375,0.72509765625t0.6298828125,1.95556640625q0,0.8056640625-0.30029296875,1.76513671875t-0.85693359375,1.81640625t-1.318359375,1.42822265625t-1.69921875,0.5712890625l-0.380859375-0.029296875q0,0.3955078125,0.1171875,1.06201171875t0.34423828125,1.32568359375t0.5859375,1.1572265625t0.87158203125,0.498046875q0.7470703125,0,1.435546875-0.6005859375t1.3037109375-1.3330078125t1.142578125-1.3330078125t0.966796875-0.6005859375q0.234375,0,0.4833984375,0.0732421875t0.2783203125,0.41015625q0,0.205078125-0.10986328125,0.3369140625t-0.19775390625,0.29296875q-0.4541015625,0.7763671875-0.98876953125,1.4794921875t-1.20849609375,1.2744140625t-1.47216796875,0.90087890625t-1.76513671875,0.32958984375q-1.259765625,0-2.0947265625-0.44677734375t-1.34765625-1.201171875t-0.73974609375-1.7431640625t-0.22705078125-2.07275390625z M61.757958984375,29.0234375l0.41015625,0.3662109375q0.29296875,0.263671875,0.5859375,0.1171875t0.52734375-0.53466796875t0.43212890625-0.95947265625t0.3515625-1.171875t0.22705078125-1.171875t0.0732421875-0.9521484375l0-0.498046875t-0.0439453125-0.52734375t-0.15380859375-0.41748046875t-0.34423828125-0.21240234375q-0.0732421875-0.0146484375-0.1318359375-0.0146484375q-0.498046875,0-0.849609375,0.6298828125q-0.380859375,0.703125-0.615234375,1.70654296875t-0.3369140625,2.05810546875t-0.1318359375,1.58203125z M71.3771484375,30.13671875q0-1.025390625,0.22705078125-2.4169921875t0.76904296875-2.63671875t1.42822265625-2.11669921875t2.23388671875-0.87158203125q1.259765625,0,1.8896484375,0.72509765625t0.6298828125,1.95556640625q0,0.8056640625-0.30029296875,1.76513671875t-0.85693359375,1.81640625t-1.318359375,1.42822265625t-1.69921875,0.5712890625l-0.380859375-0.029296875q0,0.3955078125,0.1171875,1.06201171875t0.34423828125,1.32568359375t0.5859375,1.1572265625t0.87158203125,0.498046875q0.7470703125,0,1.435546875-0.6005859375t1.3037109375-1.3330078125t1.142578125-1.3330078125t0.966796875-0.6005859375q0.234375,0,0.4833984375,0.0732421875t0.2783203125,0.41015625q0,0.205078125-0.10986328125,0.3369140625t-0.19775390625,0.29296875q-0.4541015625,0.7763671875-0.98876953125,1.4794921875t-1.20849609375,1.2744140625t-1.47216796875,0.90087890625t-1.76513671875,0.32958984375q-1.259765625,0-2.0947265625-0.44677734375t-1.34765625-1.201171875t-0.73974609375-1.7431640625t-0.22705078125-2.07275390625z M73.99921875,29.0234375l0.41015625,0.3662109375q0.29296875,0.263671875,0.5859375,0.1171875t0.52734375-0.53466796875t0.43212890625-0.95947265625t0.3515625-1.171875t0.22705078125-1.171875t0.0732421875-0.9521484375l0-0.498046875t-0.0439453125-0.52734375t-0.15380859375-0.41748046875t-0.34423828125-0.21240234375q-0.0732421875-0.0146484375-0.1318359375-0.0146484375q-0.498046875,0-0.849609375,0.6298828125q-0.380859375,0.703125-0.615234375,1.70654296875t-0.3369140625,2.05810546875t-0.1318359375,1.58203125z M83.618408203125,25.4345703125q0-0.6005859375,0.21240234375-1.0107421875t0.90087890625-0.41015625q0.263671875,0,0.6591796875,0.08056640625t0.4541015625,0.40283203125q0.146484375,0.8642578125,0.1611328125,1.875t0.1025390625,1.904296875q0.3369140625-0.6591796875,0.8642578125-1.4208984375t1.201171875-1.40625t1.46484375-1.0693359375t1.611328125-0.4248046875q0.05859375,0,0.2197265625,0.0439453125t0.30029296875,0.12451171875t0.16845703125,0.18310546875t-0.1611328125,0.1904296875q-0.05859375,0.17578125-0.2490234375,0.21240234375t-0.3369140625,0.03662109375q-0.087890625,0-0.2783203125-0.0732421875q-1.083984375,0.5712890625-1.845703125,1.552734375t-1.2451171875,2.17529296875t-0.703125,2.51953125t-0.2197265625,2.58544921875q0,0.6298828125-0.28564453125,0.76171875t-0.91552734375,0.1318359375q-0.3369140625,0-0.71044921875-0.0732421875t-0.52001953125-0.46875q-0.263671875-0.8349609375-0.43212890625-1.9189453125t-0.25634765625-2.23388671875t-0.12451171875-2.26318359375t-0.03662109375-2.0068359375z M99.736669921875,25.7861328125q0-2.51953125,0.13916015625-4.98046875t0.34423828125-4.98046875q0.05859375-0.6591796875,0.0732421875-1.2744140625t0.13916015625-1.07666015625t0.439453125-0.732421875t0.97412109375-0.27099609375q0.4248046875,0,0.88623046875,0.146484375t0.46142578125,0.6884765625q0,2.0361328125-0.16845703125,4.00634765625t-0.22705078125,3.91845703125q1.5966796875-1.8017578125,3.4130859375-3.36181640625t3.8525390625-3.08349609375q0.29296875-0.205078125,0.7470703125-0.2197265625q0.146484375,0,0.25634765625,0.0146484375t0.22705078125,0.0439453125q0.146484375,0.05859375,0.30029296875,0.13916015625t0.15380859375,0.22705078125q0,0.1171875-0.1318359375,0.205078125q-1.5234375,1.23046875-3.01025390625,2.5048828125t-2.83447265625,2.724609375q0.17578125,0.3369140625,0.30029296875,0.6298828125t0.27099609375,0.6298828125q1.23046875,2.9150390625,2.10205078125,5.96923828125t1.85302734375,6.05712890625q0.087890625,0.3369140625,0.25634765625,0.69580078125t0.31494140625,0.7177734375t0.25634765625,0.673828125t0.10986328125,0.52001953125q0,0.263671875-0.16845703125,0.41748046875t-0.38818359375,0.24169921875t-0.47607421875,0.1171875t-0.47607421875,0.029296875q-0.5126953125,0-0.91552734375-0.146484375t-0.63720703125-0.6591796875q-1.083984375-3.45703125-2.08740234375-6.9140625t-2.02880859375-6.97265625q-0.3369140625,0.3369140625-0.673828125,0.84228515625t-0.615234375,0.93017578125q0,2.197265625,0.1025390625,4.365234375t0.3515625,4.365234375q0.05859375,0.6298828125,0.19775390625,1.259765625t0.13916015625,1.2890625q0,0.4833984375-0.498046875,0.673828125t-1.0986328125,0.1904296875q-0.6591796875,0-0.98876953125-0.1318359375t-0.46875-0.34423828125t-0.16845703125-0.46875t-0.087890625-0.49072265625q-0.3369140625-2.314453125-0.4248046875-4.57763671875t-0.087890625-4.54833984375z M114.746484375,31.1328125l0-1.376953125q0-0.7470703125,0.03662109375-2.11669921875t0.09521484375-3.0029296875t0.1611328125-3.40576171875t0.234375-3.34716796875t0.31494140625-2.81982421875t0.41748046875-1.845703125q0.146484375-0.3369140625,0.4833984375-0.4248046875t0.6591796875-0.087890625q0.5126953125,0,0.90087890625,0.22705078125t0.38818359375,0.82763671875l-0.263671875,0.29296875q-0.5126953125,3.3837890625-0.6591796875,6.796875t-0.205078125,6.826171875q0.3662109375-0.5712890625,0.82763671875-1.12060546875t1.025390625-0.97412109375t1.2158203125-0.68115234375t1.42822265625-0.25634765625q0.99609375,0,1.64794921875,0.6005859375t1.07666015625,1.56005859375t0.6298828125,2.14599609375t0.31494140625,2.373046875t0.15380859375,2.24853515625t0.1318359375,1.76513671875q-0.2783203125,0.380859375-0.8203125,0.380859375l-0.0439453125,0q-0.234375,0-0.5126953125-0.05859375t-0.3662109375-0.29296875l0.029296875,0.029296875q-0.205078125-0.4541015625-0.2783203125-1.31103515625t-0.1171875-1.8896484375t-0.15380859375-2.11669921875t-0.32958984375-1.962890625t-0.64453125-1.4501953125t-1.142578125-0.6005859375l-0.087890625,0q-0.8642578125,0-1.4501953125,0.52734375q-0.615234375,0.556640625-0.99609375,1.46484375t-0.5859375,2.021484375t-0.31494140625,2.14599609375t-0.16845703125,1.875t-0.146484375,1.23779296875q-0.087890625,0.3369140625-0.52001953125,0.44677734375t-0.73974609375,0.10986328125q-0.7177734375,0-1.171875-0.41015625q-0.3369140625-0.8056640625-0.3955078125-2.0068359375t-0.05859375-2.34375z M128.76020507813,29.5361328125q0-0.99609375,0.27099609375-1.9189453125t0.81298828125-1.64794921875t1.35498046875-1.1572265625t1.88232421875-0.43212890625q0.6591796875,0,1.45751953125,0.19775390625t1.50146484375,0.5859375t1.171875,0.98876953125t0.46875,1.376953125q0,0.3662109375-0.12451171875,0.556640625t-0.50537109375,0.1904296875l-0.1611328125-0.029296875q0.4248046875,1.142578125,0.732421875,2.34375t0.6005859375,2.40234375q0.1171875,0.234375,0.17578125,0.41748046875t0.05859375,0.35888671875q0,0.234375-0.1318359375,0.38818359375t-0.34423828125,0.22705078125t-0.439453125,0.1025390625t-0.40283203125,0.029296875q-0.6298828125,0-0.94482421875-0.2197265625t-0.4541015625-0.6005859375t-0.16845703125-0.85693359375t-0.1171875-0.95947265625q-0.17578125,0.5712890625-0.46142578125,1.11328125t-0.673828125,0.97412109375t-0.91552734375,0.6884765625t-1.1865234375,0.25634765625q-0.966796875,0-1.6259765625-0.556640625t-1.06201171875-1.36962890625t-0.5859375-1.73583984375t-0.18310546875-1.7138671875z M130.84028320313,29.3310546875q0,0.5419921875,0.0732421875,1.142578125t0.24169921875,1.1865234375t0.43212890625,1.10595703125t0.6591796875,0.91552734375q0.7177734375-0.7763671875,1.06201171875-1.8896484375t0.615234375-2.14599609375t0.615234375-1.7724609375t1.06201171875-0.73974609375q0.4541015625,0,0.76171875,0.1611328125q-0.146484375-0.3662109375-0.4833984375-0.71044921875t-0.75439453125-0.6298828125t-0.8642578125-0.46875t-0.84228515625-0.18310546875q-0.1171875,0-0.27099609375,0.03662109375t-0.24169921875,0.00732421875q-0.6005859375,0.17578125-0.98876953125,0.60791015625t-0.6298828125,1.01806640625t-0.34423828125,1.201171875t-0.1025390625,1.1572265625z M141.45556640625,34.736328125q0-0.4248046875,0.03662109375-0.8935546875t0.06591796875-0.87890625l0.087890625-2.197265625q0.146484375-2.63671875,0.35888671875-5.185546875t0.35888671875-5.15625q0.087890625-1.435546875,0.1318359375-2.81982421875t0.1318359375-2.81982421875q-0.05859375-0.1171875-0.05859375-0.1611328125q0-0.205078125,0.15380859375-0.322265625t0.35888671875-0.19775390625t0.43212890625-0.10986328125t0.34423828125-0.029296875l0.3369140625,0q0.4541015625,0.05859375,0.6591796875,0.28564453125t0.263671875,0.5419921875t0.029296875,0.673828125t-0.029296875,0.66650390625q0,2.1240234375-0.1025390625,4.32861328125t-0.234375,4.423828125t-0.24169921875,4.4384765625t-0.10986328125,4.38720703125l0,1.025390625q0,0.6884765625-0.38818359375,0.908203125t-1.07666015625,0.2197265625q-0.6005859375,0-1.0546875-0.263671875t-0.4541015625-0.8642578125z M148.17436523438,30.13671875q0-1.025390625,0.22705078125-2.4169921875t0.76904296875-2.63671875t1.42822265625-2.11669921875t2.23388671875-0.87158203125q1.259765625,0,1.8896484375,0.72509765625t0.6298828125,1.95556640625q0,0.8056640625-0.30029296875,1.76513671875t-0.85693359375,1.81640625t-1.318359375,1.42822265625t-1.69921875,0.5712890625l-0.380859375-0.029296875q0,0.3955078125,0.1171875,1.06201171875t0.34423828125,1.32568359375t0.5859375,1.1572265625t0.87158203125,0.498046875q0.7470703125,0,1.435546875-0.6005859375t1.3037109375-1.3330078125t1.142578125-1.3330078125t0.966796875-0.6005859375q0.234375,0,0.4833984375,0.0732421875t0.2783203125,0.41015625q0,0.205078125-0.10986328125,0.3369140625t-0.19775390625,0.29296875q-0.4541015625,0.7763671875-0.98876953125,1.4794921875t-1.20849609375,1.2744140625t-1.47216796875,0.90087890625t-1.76513671875,0.32958984375q-1.259765625,0-2.0947265625-0.44677734375t-1.34765625-1.201171875t-0.73974609375-1.7431640625t-0.22705078125-2.07275390625z M150.79643554688,29.0234375l0.41015625,0.3662109375q0.29296875,0.263671875,0.5859375,0.1171875t0.52734375-0.53466796875t0.43212890625-0.95947265625t0.3515625-1.171875t0.22705078125-1.171875t0.0732421875-0.9521484375l0-0.498046875t-0.0439453125-0.52734375t-0.15380859375-0.41748046875t-0.34423828125-0.21240234375q-0.0732421875-0.0146484375-0.1318359375-0.0146484375q-0.498046875,0-0.849609375,0.6298828125q-0.380859375,0.703125-0.615234375,1.70654296875t-0.3369140625,2.05810546875t-0.1318359375,1.58203125z M160.415625,29.3603515625q0-1.142578125,0.24169921875-2.07275390625t0.76904296875-1.57470703125t1.38427734375-1.00341796875t2.08740234375-0.35888671875q0.6884765625,0,1.40625,0.18310546875t1.23046875,0.68115234375q0-0.29296875,0.05859375-1.20849609375t0.146484375-2.13134765625t0.18310546875-2.548828125t0.16845703125-2.4755859375t0.1318359375-1.9189453125t0.087890625-0.87890625q0.146484375-0.4248046875,0.5419921875-0.50537109375t0.7470703125-0.08056640625q0.9228515625,0,1.13525390625,0.29296875t0.21240234375,1.171875q0,3.2080078125-0.28564453125,6.38671875t-0.28564453125,6.38671875q0,2.0654296875,0.08056640625,4.15283203125t0.57861328125,4.10888671875l0.1611328125,0.146484375l0.087890625,0.263671875l-0.2197265625,0.3369140625q-0.556640625,0.3515625-1.2890625,0.3515625l-0.05859375,0q-0.7470703125,0-1.376953125-0.3515625q-0.234375-0.146484375-0.38818359375-0.87158203125t-0.24169921875-1.5966796875t-0.1318359375-1.67724609375t-0.0732421875-1.142578125q-0.5126953125,1.171875-1.39892578125,2.01416015625t-2.23388671875,0.84228515625q-1.0546875,0-1.728515625-0.4541015625t-1.04736328125-1.1572265625t-0.52734375-1.57470703125t-0.15380859375-1.73583984375z M162.1880859375,29.4482421875q0,0.3369140625,0.08056640625,0.99609375t0.25634765625,1.318359375t0.49072265625,1.171875t0.82763671875,0.5126953125q0.6884765625-0.3369140625,1.2451171875-1.12060546875t0.95947265625-1.728515625t0.6298828125-1.8896484375t0.22705078125-1.63330078125q0-0.8642578125-0.6298828125-1.435546875t-1.5087890625-0.5712890625q-0.263671875,0-0.53466796875,0.1025390625t-0.50537109375,0.234375q-0.5419921875,0.5126953125-0.84228515625,0.93017578125t-0.4541015625,0.8642578125t-0.19775390625,0.98876953125t-0.0439453125,1.259765625z"/><path fill="#" d=""/></svg>
